<svg width="20" height="17" viewBox="0 0 20 17" fill="none" xmlns="http://www.w3.org/2000/svg">
<path d="M18 0.756104H2C0.9 0.756104 0 1.6561 0 2.7561V14.7561C0 15.8561 0.9 16.7561 2 16.7561H18C19.1 16.7561 20 15.8561 20 14.7561V2.7561C20 1.6561 19.1 0.756104 18 0.756104ZM17.6 5.0061L11.06 9.0961C10.41 9.5061 9.59 9.5061 8.94 9.0961L2.4 5.0061C2.15 4.8461 2 4.5761 2 4.2861C2 3.6161 2.73 3.2161 3.3 3.5661L10 7.7561L16.7 3.5661C17.27 3.2161 18 3.6161 18 4.2861C18 4.5761 17.85 4.8461 17.6 5.0061Z" fill="#BCBCBC"/>
</svg>
