<svg width="22" height="16" viewBox="0 0 22 16" fill="none" xmlns="http://www.w3.org/2000/svg">
<path d="M11 0.256104C6 0.256104 1.73 3.3661 0 7.7561C1.73 12.1461 6 15.2561 11 15.2561C16 15.2561 20.27 12.1461 22 7.7561C20.27 3.3661 16 0.256104 11 0.256104ZM11 12.7561C8.24 12.7561 6 10.5161 6 7.7561C6 4.9961 8.24 2.7561 11 2.7561C13.76 2.7561 16 4.9961 16 7.7561C16 10.5161 13.76 12.7561 11 12.7561ZM11 4.7561C9.34 4.7561 8 6.0961 8 7.7561C8 9.4161 9.34 10.7561 11 10.7561C12.66 10.7561 14 9.4161 14 7.7561C14 6.0961 12.66 4.7561 11 4.7561Z" fill="#BCBCBC"/>
</svg>
